<?xml version="1.0" encoding="UTF-8" standalone="no"?>
<svg
   xmlns:dc="http://purl.org/dc/elements/1.1/"
   xmlns:cc="http://creativecommons.org/ns#"
   xmlns:rdf="http://www.w3.org/1999/02/22-rdf-syntax-ns#"
   xmlns:svg="http://www.w3.org/2000/svg"
   xmlns="http://www.w3.org/2000/svg"
   xmlns:sodipodi="http://sodipodi.sourceforge.net/DTD/sodipodi-0.dtd"
   xmlns:inkscape="http://www.inkscape.org/namespaces/inkscape"
   version="1.1"
   id="Layer_1"
   x="0px"
   y="0px"
   width="1000"
   height="357.3743"
   viewBox="0 0 1000 357.3743"
   enable-background="new 0 0 1000 167.898"
   xml:space="preserve"
   sodipodi:docname="Gunung Sewu logo.svg"
   inkscape:version="1.0.2 (e86c870879, 2021-01-15)"><metadata
   id="metadata41"><rdf:RDF><cc:Work
       rdf:about=""><dc:format>image/svg+xml</dc:format><dc:type
         rdf:resource="http://purl.org/dc/dcmitype/StillImage" /><dc:title></dc:title></cc:Work></rdf:RDF></metadata><defs
   id="defs39">
	
	
	
	
	
	
	
	
	
	
	
	
	
	
	
	
</defs><sodipodi:namedview
   pagecolor="#ffffff"
   bordercolor="#666666"
   borderopacity="1"
   objecttolerance="10"
   gridtolerance="10"
   guidetolerance="10"
   inkscape:pageopacity="0"
   inkscape:pageshadow="2"
   inkscape:window-width="1366"
   inkscape:window-height="705"
   id="namedview37"
   showgrid="false"
   inkscape:zoom="0.5"
   inkscape:cx="554.21021"
   inkscape:cy="126.00248"
   inkscape:window-x="-8"
   inkscape:window-y="-8"
   inkscape:window-maximized="1"
   inkscape:current-layer="Layer_1"
   inkscape:document-rotation="0" />

<g
   id="g1036"
   transform="matrix(1.1364316,0,0,1.1364316,-66.966505,-72.427538)"><path
     id="path981"
     style="color:#000000;font-style:normal;font-variant:normal;font-weight:normal;font-stretch:normal;font-size:medium;line-height:normal;font-family:sans-serif;font-variant-ligatures:normal;font-variant-position:normal;font-variant-caps:normal;font-variant-numeric:normal;font-variant-alternates:normal;font-variant-east-asian:normal;font-feature-settings:normal;text-indent:0;text-align:start;text-decoration:none;text-decoration-line:none;text-decoration-style:solid;text-decoration-color:#000000;letter-spacing:normal;word-spacing:normal;text-transform:none;writing-mode:lr-tb;direction:ltr;text-orientation:mixed;dominant-baseline:auto;baseline-shift:baseline;text-anchor:start;white-space:normal;shape-padding:0;shape-margin:0;inline-size:0;clip-rule:nonzero;display:inline;overflow:visible;visibility:visible;opacity:1;isolation:auto;mix-blend-mode:normal;color-interpolation:sRGB;color-interpolation-filters:linearRGB;solid-color:#000000;solid-opacity:1;vector-effect:none;fill:#659ad2;fill-opacity:1;fill-rule:evenodd;stroke:none;stroke-width:432.02;stroke-linecap:butt;stroke-linejoin:miter;stroke-miterlimit:4;stroke-dasharray:none;stroke-dashoffset:0;stroke-opacity:1;paint-order:stroke fill markers;color-rendering:auto;image-rendering:auto;shape-rendering:auto;text-rendering:auto;enable-background:accumulate;stop-color:#000000"
     d="m 216.75977,63.732422 c -87.10889,0 -157.83277,70.128528 -157.83277,157.236328 0,87.10778 70.72388,157.23426 157.83277,157.23425 87.10885,0 157.23828,-70.12647 157.23828,-157.23425 V 200.726 H 292.816 v -15.178 h 81.18205 V 171.24805 H 213.18359 v 50.08203 h 65.82422 c -0.18366,35.26298 -26.93907,63.89062 -62.24804,63.89062 -35.43085,0 -64.35352,-28.82352 -64.35352,-64.2539 0,-35.4304 28.92268,-63.13135 64.35352,-63.1543 52.41275,-0.034 157.23828,0 157.23828,0 V 63.732422 Z"
     sodipodi:nodetypes="ssssccccccccsssccs" /><path
     d="m 486.73979,173.29272 h 16.88002 v -47.94904 h -37.55193 v 16.39074 h 19.3264 c -0.6116,4.52581 -1.34551,9.17393 -6.97219,12.8435 -3.54725,2.32406 -7.95073,3.30261 -11.86494,3.30261 -6.60522,0 -12.47654,-2.69102 -15.77915,-6.23827 -4.15885,-4.28116 -6.84986,-12.2319 -6.84986,-22.01742 0,-14.43364 6.23827,-28.01105 22.62901,-28.01105 11.98726,0 17.00234,7.58378 20.06032,12.2319 l 16.39074,-9.90784 C 498.97169,98.678134 487.84066,83.999854 464.967,83.999854 c -24.58611,0 -42.56701,18.470166 -42.56701,46.236586 0,25.44235 14.8006,45.01339 38.89744,45.01339 14.55597,0 21.89511,-6.72755 25.44236,-10.03016 z"
     style="font-style:normal;font-variant:normal;font-weight:bold;font-stretch:normal;font-size:122.319px;font-family:'Berthold Akzidenz Grotesk';-inkscape-font-specification:'Berthold Akzidenz Grotesk Bold';letter-spacing:-1.67577px;display:inline;fill:#1e406f;fill-opacity:1;stroke-width:2.31154"
     id="path994" /><path
     d="m 565.96215,86.93551 v 53.69804 c -0.12232,6.72755 -0.12232,16.7577 -14.8006,16.7577 -5.38204,0 -11.25335,-1.3455 -13.94437,-5.87131 -1.46782,-2.69102 -1.59014,-6.36059 -1.59014,-10.76407 V 86.93551 h -21.77278 v 48.19369 c -0.12232,11.74262 -0.12232,26.91018 16.51306,35.47251 5.87131,3.05797 13.57741,4.64812 20.06032,4.64812 3.66957,0 22.87365,-0.73392 32.16989,-15.65683 4.77044,-7.82842 4.89276,-16.14611 5.01508,-24.4638 V 86.93551 Z"
     style="font-style:normal;font-variant:normal;font-weight:bold;font-stretch:normal;font-size:122.319px;font-family:'Berthold Akzidenz Grotesk';-inkscape-font-specification:'Berthold Akzidenz Grotesk Bold';letter-spacing:-7.61px;display:inline;fill:#1e406f;fill-opacity:1;stroke-width:2.31154"
     id="path996" /><path
     d="m 601.83618,173.29272 h 20.67191 l -0.61159,-54.30963 c 5.87131,11.49798 7.33914,14.189 15.16755,27.0325 l 16.14611,27.27713 h 21.16119 V 86.93551 h -20.67191 l 0.97855,55.41051 c -4.03653,-7.58378 -6.11595,-11.49799 -12.96581,-23.60757 L 622.99737,86.93551 h -21.16119 z"
     style="font-style:normal;font-variant:normal;font-weight:bold;font-stretch:normal;font-size:122.319px;font-family:'Berthold Akzidenz Grotesk';-inkscape-font-specification:'Berthold Akzidenz Grotesk Bold';letter-spacing:-7.61px;display:inline;fill:#1e406f;fill-opacity:1;stroke-width:2.31154"
     id="path998" /><path
     d="m 739.8428,86.93551 v 53.69804 c -0.12232,6.72755 -0.12232,16.7577 -14.8006,16.7577 -5.38204,0 -11.25335,-1.3455 -13.94437,-5.87131 -1.46783,-2.69102 -1.59015,-6.36059 -1.59015,-10.76407 V 86.93551 H 687.7349 v 48.19369 c -0.12232,11.74262 -0.12232,26.91018 16.51307,35.47251 5.87131,3.05797 13.57741,4.64812 20.06031,4.64812 3.66957,0 22.87366,-0.73392 32.1699,-15.65683 4.77044,-7.82842 4.89276,-16.14611 5.01508,-24.4638 V 86.93551 Z"
     style="font-style:normal;font-variant:normal;font-weight:bold;font-stretch:normal;font-size:122.319px;font-family:'Berthold Akzidenz Grotesk';-inkscape-font-specification:'Berthold Akzidenz Grotesk Bold';letter-spacing:-7.61px;display:inline;fill:#1e406f;fill-opacity:1;stroke-width:2.31154"
     id="path1000" /><path
     d="m 774.69684,173.29272 h 20.67191 l -0.6116,-54.30963 c 5.87132,11.49798 7.33914,14.189 15.16756,27.0325 l 16.14611,27.27713 h 21.16119 V 86.93551 h -20.67192 l 0.97856,55.41051 c -4.03653,-7.58378 -6.11595,-11.49799 -12.96582,-23.60757 L 795.85802,86.93551 h -21.16118 z"
     style="font-style:normal;font-variant:normal;font-weight:bold;font-stretch:normal;font-size:122.319px;font-family:'Berthold Akzidenz Grotesk';-inkscape-font-specification:'Berthold Akzidenz Grotesk Bold';letter-spacing:-7.61px;display:inline;fill:#1e406f;fill-opacity:1;stroke-width:2.31154"
     id="path1002" /><path
     d="m 921.99433,173.29272 h 16.88003 v -47.94904 h -37.55194 v 16.39074 h 19.3264 c -0.61159,4.52581 -1.3455,9.17393 -6.97218,12.8435 -3.54725,2.32406 -7.95073,3.30261 -11.86494,3.30261 -6.60523,0 -12.47654,-2.69102 -15.77915,-6.23827 -4.15885,-4.28116 -6.84987,-12.2319 -6.84987,-22.01742 0,-14.43364 6.23827,-28.01105 22.62902,-28.01105 11.98726,0 17.00234,7.58378 20.06031,12.2319 l 16.39075,-9.90784 c -4.03653,-5.259716 -15.16756,-19.937996 -38.04121,-19.937996 -24.58612,0 -42.56701,18.470166 -42.56701,46.236586 0,25.44235 14.8006,45.01339 38.89744,45.01339 14.55596,0 21.8951,-6.72755 25.44235,-10.03016 z"
     style="font-style:normal;font-variant:normal;font-weight:bold;font-stretch:normal;font-size:122.319px;font-family:'Berthold Akzidenz Grotesk';-inkscape-font-specification:'Berthold Akzidenz Grotesk Bold';letter-spacing:-7.61px;display:inline;fill:#1e406f;fill-opacity:1;stroke-width:2.31154"
     id="path1004" /><path
     d="m 419.9981,270.70696 c 5.38204,6.23827 15.04524,17.49162 39.38672,17.49162 12.10958,0 24.58612,-2.5687 32.41454,-11.62031 4.5258,-5.25971 6.84986,-12.10958 6.84986,-18.34785 0,-9.78552 -5.01508,-17.49161 -14.92292,-21.16118 -4.89276,-1.71247 -17.24698,-4.03653 -26.4209,-5.1374 -3.66957,-0.48928 -11.00871,-1.46783 -11.00871,-8.07306 0,-4.15884 4.28116,-9.0516 12.84349,-9.0516 5.50436,0 11.00871,2.07942 14.06669,3.79189 3.42493,1.9571 5.87131,4.28116 8.56233,6.97218 l 15.90147,-11.37567 c -7.46146,-6.72754 -18.22553,-16.39074 -38.16353,-16.39074 -14.92292,0 -34.7386,6.60522 -34.7386,28.86728 0,18.59249 17.9809,22.38438 23.24061,23.48525 4.64813,0.97855 9.41857,1.59015 14.18901,2.20174 6.36059,0.85623 15.04524,1.95711 15.04524,8.80697 0,5.99363 -7.33914,10.03016 -15.90147,10.03016 -5.01508,0 -10.8864,-1.10087 -16.63539,-4.15885 -4.28116,-2.32406 -6.11595,-4.28116 -8.31769,-6.72754 z"
     style="font-style:normal;font-variant:normal;font-weight:bold;font-stretch:normal;font-size:122.319px;font-family:'Berthold Akzidenz Grotesk';-inkscape-font-specification:'Berthold Akzidenz Grotesk Bold';letter-spacing:-1.67577px;display:inline;fill:#1e406f;fill-opacity:1;stroke-width:2.31154"
     id="path1006" /><path
     d="M 508.27459,286.24147 H 575.917 v -17.00234 h -46.11426 v -20.54959 h 39.50903 V 232.2988 h -39.50903 v -15.65684 h 42.32237 v -16.7577 h -63.85052 z"
     style="font-style:normal;font-variant:normal;font-weight:bold;font-stretch:normal;font-size:122.319px;font-family:'Berthold Akzidenz Grotesk';-inkscape-font-specification:'Berthold Akzidenz Grotesk Bold';letter-spacing:-1.67577px;display:inline;fill:#1e406f;fill-opacity:1;stroke-width:2.31154"
     id="path1008" /><path
     d="m 627.13768,199.88426 -7.0945,26.66554 c -4.52581,17.12466 -5.38204,20.42728 -8.56233,37.55194 -2.5687,-18.71481 -3.54725,-23.24061 -12.8435,-64.21748 h -21.52814 l 21.8951,86.35721 h 22.26206 l 8.31769,-29.11192 c 4.89276,-16.51306 5.1374,-17.3693 7.33914,-28.01105 2.5687,12.10958 2.81334,12.72118 7.46146,28.62265 2.81333,9.41856 5.38203,18.95944 8.07305,28.50032 h 22.26206 l 21.8951,-86.35721 h -21.40582 c -1.83479,8.68465 -3.79189,17.49162 -5.62668,26.29859 -3.91421,17.61393 -4.5258,20.54959 -7.0945,37.67425 -2.69102,-16.75771 -3.54725,-19.44872 -8.31769,-36.08411 -2.81334,-9.29624 -5.38204,-18.59249 -7.95074,-27.88873 z"
     style="font-style:normal;font-variant:normal;font-weight:bold;font-stretch:normal;font-size:122.319px;font-family:'Berthold Akzidenz Grotesk';-inkscape-font-specification:'Berthold Akzidenz Grotesk Bold';letter-spacing:-1.67577px;display:inline;fill:#1e406f;fill-opacity:1;stroke-width:2.31154"
     id="path1010" /><path
     d="m 754.21517,199.88426 v 53.69804 c -0.12232,6.72755 -0.12232,16.7577 -14.8006,16.7577 -5.38203,0 -11.25335,-1.3455 -13.94436,-5.87131 -1.46783,-2.69102 -1.59015,-6.36059 -1.59015,-10.76407 v -53.82036 h -21.77278 v 48.19369 c -0.12232,11.74262 -0.12232,26.91018 16.51306,35.47251 5.87131,3.05797 13.57741,4.64812 20.06032,4.64812 3.66957,0 22.87365,-0.73392 32.16989,-15.65683 4.77045,-7.82842 4.89276,-16.14611 5.01508,-24.4638 v -48.19369 z"
     style="font-style:normal;font-variant:normal;font-weight:bold;font-stretch:normal;font-size:122.319px;font-family:'Berthold Akzidenz Grotesk';-inkscape-font-specification:'Berthold Akzidenz Grotesk Bold';letter-spacing:-1.67577px;display:inline;fill:#1e406f;fill-opacity:1;stroke-width:2.31154"
     id="path1012" /></g></svg>
